<?xml version="1.0" encoding="UTF-8"?>
<svg id="Capa_1" data-name="Capa 1" xmlns="http://www.w3.org/2000/svg" version="1.1" viewBox="0 0 328.88 77.8">
  <defs>
    <style>
      .cls-1 {
        fill: #f5f5f5;
      }

      .cls-1, .cls-2, .cls-3, .cls-4 {
        stroke-width: 0px;
      }

      .cls-2 {
        fill: #00e84a;
      }

      .cls-3 {
        fill: #293762;
      }

      .cls-4 {
        fill: #00abe5;
      }
    </style>
  </defs>
  <g>
    <rect class="cls-3" x="8.22" y="1.94" width="73.91" height="73.91" rx="6.89" ry="6.89"/>
    <g>
      <path class="cls-4" d="M61.79,34.28l-20.9,7.83h13.13s.05,0,.08,0c4.01-.03,7.23-3.37,7.64-7.36l.05-.47Z"/>
      <g>
        <path class="cls-2" d="M52.33,18.28h-4.48c-7.48,0-14.32,4.2-17.7,10.87h21.38l-1.1,9.38,8.51-4.42c1.89-.98,3.15-2.84,3.37-4.96h0c.67-6.02-3.77-10.87-9.98-10.87Z"/>
        <path class="cls-1" d="M38.02,59.52h4.48c7.48,0,14.32-4.2,17.7-10.87h-21.38l2.24-17.6-9.39,4.88c-1.34.7-2.26,2.01-2.45,3.51l-1.18,9.21c-.67,6.02,3.77,10.87,9.98,10.87Z"/>
      </g>
    </g>
  </g>
  <g>
    <path class="cls-3" d="M193.81,30h-20.58v40.38h6.8v-34.19h13.4c1.08,0,1.96.07,2.74.21.74.13,1.36.31,1.87.51,1.27.51,2.14,1.31,2.67,2.44.58,1.24.87,3.05.87,5.36v25.68h6.8v-25.75c0-4.96-1.2-8.68-3.55-11.05-2.36-2.37-6.07-3.57-11.02-3.57Z"/>
    <path class="cls-3" d="M232.44,30c-12.29,0-18.52,6.85-18.52,20.35,0,7.04,1.67,12.32,4.97,15.71,3.3,3.39,8.55,5.11,15.61,5.11,4.24,0,8.09-.69,11.44-2.05l.77-.31v-6.17l-1.68.67c-3.11,1.24-6.35,1.87-9.65,1.87-3.67,0-6.58-.43-8.66-1.28-1.96-.8-3.41-2.06-4.32-3.75-.82-1.53-1.35-3.57-1.58-6.07h28.34v-7.97c0-4.74-1.41-8.65-4.2-11.62-2.81-2.99-7.02-4.5-12.5-4.5ZM220.74,48.26c.15-3.99,1.04-7.01,2.67-9.01,1.72-2.12,4.79-3.19,9.12-3.19,6.98,0,10.23,3.15,10.23,9.9v2.3h-22.01Z"/>
    <path class="cls-3" d="M110.2,30c-12.29,0-18.52,6.85-18.52,20.35,0,7.04,1.67,12.32,4.97,15.71,3.3,3.39,8.55,5.11,15.61,5.11,4.24,0,8.09-.69,11.44-2.05l.77-.31v-6.16l-1.68.67c-3.11,1.24-6.35,1.87-9.65,1.87-3.67,0-6.58-.43-8.66-1.28-1.96-.8-3.41-2.06-4.32-3.75-.82-1.53-1.35-3.57-1.58-6.07h28.34v-7.97c0-4.74-1.41-8.65-4.2-11.62-2.81-2.99-7.02-4.5-12.5-4.5ZM98.5,48.26c.15-3.99,1.05-7.02,2.67-9.01,1.72-2.12,4.78-3.19,9.12-3.19,6.98,0,10.23,3.15,10.23,9.9v2.3h-22.01Z"/>
    <path class="cls-2" d="M319.28,30.32v-.68h-52.96c-3.58.07-7.14,2.11-8.66,4.96l-.53,1h56.87c2.91,0,5.28-2.37,5.28-5.28Z"/>
    <path class="cls-3" d="M319.1,53.78h0c-1.01-1.5-2.48-2.75-4.37-3.7-1.76-.89-4.28-1.85-7.49-2.86-2.75-.88-4.75-1.57-5.94-2.08-1.04-.44-1.81-.98-2.31-1.62-.46-.58-.69-1.45-.69-2.58,0-.51.07-1,.23-1.54l.44-1.56h-7.04l-.16,1.04c-.09.55-.19,1.3-.19,2.15,0,2.45.56,4.45,1.66,5.94,1.07,1.44,2.41,2.54,3.98,3.28,1.44.67,3.56,1.47,6.46,2.43l2,.71c2.43.82,4.22,1.49,5.34,1.99.95.43,1.68.98,2.16,1.64.45.62.68,1.54.68,2.73,0,1.94-.57,3.21-1.79,3.98-1.37.86-3.81,1.3-7.24,1.3-3.75,0-7.31-.56-10.58-1.66l-1.62-.54v6.43l.84.28c3.27,1.08,7.28,1.63,11.91,1.63,12.63,0,15.28-6.21,15.28-11.41,0-2.43-.52-4.44-1.55-5.97Z"/>
    <path class="cls-3" d="M141.18,31.41v-9.12c0-2.32.29-4.12.87-5.36.13-.28.29-.55.46-.79l.78-1.08h-1.73c-3.95,0-7.17,3.17-7.18,7.15v48.17h6.8v-25.68c0-2.32.29-4.12.87-5.36.53-1.13,1.4-1.93,2.66-2.44.51-.21,1.14-.38,1.87-.51.79-.14,1.66-.21,2.74-.21h18.18l2.32-6.19h-20.88c-4.11,0-5.9.46-7.78,1.41Z"/>
    <path class="cls-2" d="M136.62,11.82l-.57,1.01h30.38c4.58,0,5.81-3.61,5.83-5.52v-.68s-26.02,0-26.02,0c-3.98.08-7.93,2.21-9.62,5.19Z"/>
    <path class="cls-3" d="M279.43,50.08c-1.76-.89-4.28-1.85-7.48-2.86-2.75-.87-4.75-1.57-5.94-2.08-1.03-.44-1.81-.98-2.31-1.62-.46-.58-.69-1.45-.69-2.58,0-.51.07-1,.23-1.54l.59-2.07-3.58,1.54c-1.54.66-2.68,1.97-3.12,3.59-.43,1.55-.14,3.17.83,4.5,1.07,1.44,2.41,2.54,3.98,3.28,1.44.68,3.56,1.47,6.47,2.44l1.99.71c2.42.82,4.22,1.49,5.34,1.99.95.43,1.68.98,2.15,1.64.45.62.68,1.54.68,2.73,0,1.94-.57,3.21-1.79,3.98-1.37.86-3.81,1.3-7.25,1.3-3.75,0-7.31-.56-10.58-1.66l-1.62-.54v6.43l.84.28c3.27,1.08,7.28,1.63,11.91,1.63,12.63,0,15.28-6.21,15.28-11.41,0-2.43-.52-4.44-1.55-5.97-1.01-1.5-2.48-2.75-4.38-3.7Z"/>
  </g>
</svg>